<?xml version="1.0" encoding="UTF-8"?><svg xmlns="http://www.w3.org/2000/svg" xmlns:xlink="http://www.w3.org/1999/xlink" viewBox="0 0 48 48" version="1.1"><path d="M20.941 38h-1.695a5.55 5.55 0 0 1-4.816-2.824L8 24l8.023-14h8.325l-7.442 14.016.098.054L20.46 30h4.945zm-9.875-23.367l-2.18-3.79A1.718 1.718 0 0 0 7.415 10H0l6.848 11.984zm22.43-1.809A5.551 5.551 0 0 0 28.676 10h-2.067l-4.246 8h5.098L31 24l-7.77 14h8.668L40 24zm7.652 13.184l-4.234 7.32 2.2 3.828c.312.524.87.844 1.472.844H48z" fill="#8BC34A" id="surface1"/><metadata><rdf:RDF xmlns:rdf="http://www.w3.org/1999/02/22-rdf-syntax-ns#" xmlns:rdfs="http://www.w3.org/2000/01/rdf-schema#" xmlns:dc="http://purl.org/dc/elements/1.1/"><rdf:Description about="https://iconscout.com/legal#licenses" dc:title="game,maker" dc:description="game,maker" dc:publisher="Iconscout" dc:date="2017-12-15" dc:format="image/svg+xml" dc:language="en"><dc:creator><rdf:Bag><rdf:li>Icons8</rdf:li></rdf:Bag></dc:creator></rdf:Description></rdf:RDF></metadata></svg>